<?xml version="1.0" encoding="UTF-8" standalone="no"?>
<svg
   viewBox="0 0 24 24"
   height="24"
   width="24"
   xml:space="preserve"
   style="fill-rule:evenodd;clip-rule:evenodd;stroke-linejoin:round;stroke-miterlimit:2"
   version="1.1"
   id="svg1"
   sodipodi:docname="app.svg"
   inkscape:version="1.4.3 (0d15f75042, 2025-12-25)"
   xmlns:inkscape="http://www.inkscape.org/namespaces/inkscape"
   xmlns:sodipodi="http://sodipodi.sourceforge.net/DTD/sodipodi-0.dtd"
   xmlns="http://www.w3.org/2000/svg"
   xmlns:svg="http://www.w3.org/2000/svg"><defs
     id="defs1" /><sodipodi:namedview
     id="namedview1"
     pagecolor="#505050"
     bordercolor="#eeeeee"
     borderopacity="1"
     inkscape:showpageshadow="0"
     inkscape:pageopacity="0"
     inkscape:pagecheckerboard="0"
     inkscape:deskcolor="#d1d1d1"
     inkscape:zoom="17.120374"
     inkscape:cx="26.401293"
     inkscape:cy="6.4250933"
     inkscape:window-width="2256"
     inkscape:window-height="1463"
     inkscape:window-x="0"
     inkscape:window-y="0"
     inkscape:window-maximized="1"
     inkscape:current-layer="svg1" /><path
     d="M 5,3 C 4.4684963,2.9924339 3.9573879,3.2057583 3.5878906,3.5878906 3.1958906,3.9798906 3,4.45 3,5 V 19 C 2.99254,19.531976 3.2052361,20.042475 3.5878906,20.412109 3.9788906,20.803109 4.45,21 5,21 h 14 c 0.531758,0.0074 1.042098,-0.205906 1.412109,-0.587891 C 20.794094,20.042098 21.0074,19.531758 21,19 V 5 C 21,4.45 20.803109,3.9798906 20.412109,3.5878906 20.020109,3.1968906 19.55,3 19,3 Z m 9.53125,3.3710937 c 0,0 0.002,0.00195 0.002,0.00195 8.35e-4,1.19e-4 0.0051,-1.587e-4 0.0059,0 0,0 0.002,0 0.002,0 0.0064,0 0.01513,6.786e-4 0.02148,0.00195 0.01272,0.00127 0.02371,0.00527 0.03516,0.00781 0,0 0.002,0 0.002,0 0,0 0.002,0 0.002,0 0.0016,1.587e-4 0.004,0 0.0059,0 l 2.646484,0.8261719 c 0.956965,0.2999338 1.600727,1.1758147 1.601563,2.1796875 v 0.00195 1.304688 c 0,0.08139 -0.03934,0.156756 -0.105469,0.205078 -0.04324,0.03306 -0.09698,0.04883 -0.150391,0.04883 -0.02543,0 -0.05074,-0.0041 -0.07617,-0.01172 L 14.785156,9.7695313 v 6.0136717 c 0,1.261525 -1.027619,2.289063 -2.289062,2.289063 -1.261443,0 -2.289063,-1.02762 -2.289063,-2.289063 0,-1.261443 1.02762,-2.289062 2.289063,-2.289062 0.718515,0 1.361512,0.333393 1.78125,0.853515 V 6.6269531 c 0,-0.019076 0.002,-0.038838 0.0059,-0.056641 0.0013,-0.00509 0.0046,-0.010538 0.0059,-0.015625 0.0038,-0.012718 0.0073,-0.025665 0.01367,-0.037109 0.0025,-0.00636 0.0053,-0.010538 0.0078,-0.015625 0.0064,-0.010174 0.01385,-0.021076 0.02148,-0.03125 0.0038,-0.00509 0.0066,-0.010538 0.01172,-0.015625 0.0089,-0.010174 0.01912,-0.01649 0.0293,-0.025391 0,0 0,-0.00195 0,-0.00195 0,0 0.002,0 0.002,0 7.15e-4,-7.55e-4 0.0033,-0.00506 0.0039,-0.00586 0,0 0.002,-0.00195 0.002,-0.00195 0,0 0.002,0 0.002,0 0,0 0.002,-0.00195 0.002,-0.00195 0.02925,-0.021618 0.06273,-0.035339 0.09961,-0.042969 0.0064,-0.00127 0.01444,-0.00195 0.01953,-0.00195 0.01017,0 0.01844,-0.00195 0.02734,-0.00195 z M 5.3496094,7.8984375 c 0.00852,-8.724e-4 0.016648,0 0.025391,0 h 7.121094 c 0.139887,0 0.253906,0.1140186 0.253906,0.2539063 0,0.1398876 -0.114019,0.2539062 -0.253906,0.2539062 H 5.375 c -0.1398876,0 -0.2539063,-0.1140186 -0.2539063,-0.2539062 0,-0.1311447 0.1006778,-0.2408199 0.2285157,-0.2539063 z m 0,3.3066405 c 0.00852,-8.72e-4 0.016648,0 0.025391,0 h 7.121094 c 0.139887,0 0.253906,0.114019 0.253906,0.253906 0,0.139888 -0.114019,0.253907 -0.253906,0.253907 H 5.375 c -0.1398876,0 -0.2539063,-0.114019 -0.2539063,-0.253907 0,-0.131144 0.1006778,-0.24082 0.2285157,-0.253906 z M 5.375,14.509766 h 3.3066406 c 0.1398876,0 0.2539063,0.115971 0.2539063,0.255859 0,0.139888 -0.1140187,0.253906 -0.2539063,0.253906 H 5.375 c -0.1398876,0 -0.2539063,-0.114018 -0.2539063,-0.253906 0,-0.139888 0.1140187,-0.255859 0.2539063,-0.255859 z"
     style="fill:#ffffff"
     id="path3" /></svg>
