<?xml version="1.0" encoding="UTF-8" standalone="no"?>
<svg viewBox="0 0 24 24" height="24" width="24" xml:space="preserve" style="fill-rule:evenodd;clip-rule:evenodd;stroke-linejoin:round;stroke-miterlimit:2" version="1.1"
  xmlns="http://www.w3.org/2000/svg">
  <defs id="defs1"></defs>
  <path d="M 5,3 C 4.4684963,2.9924339 3.9573879,3.2057583 3.5878906,3.5878906 3.1958906,3.9798906 3,4.45 3,5 v 14 c -0.00746,0.531976 0.2052361,1.042475 0.5878906,1.412109 C 3.9788906,20.803109 4.45,21 5,21 h 14 c 0.531758,0.0074 1.042098,-0.205906 1.412109,-0.587891 C 20.794094,20.042098 21.0074,19.531758 21,19 V 5 C 21,4.45 20.803109,3.9798906 20.412109,3.5878906 20.020109,3.1968906 19.55,3 19,3 Z M 5.9980469,5.0488281 9.8125,7.5019531 5.9980469,9.953125 Z M 14.873047,7.125 c 0.0029,-1.508e-4 0.0054,0 0.0078,0 0.0097,0 0.01888,0 0.02734,0 0,0 0.002,0 0.002,0 0,0 0.002,0 0.002,0 0,0 0.002,0 0.002,0 7.93e-4,1.131e-4 0.003,0 0.0039,0 0.006,0 0.01349,0.0027 0.01953,0.00391 0.01209,0.00121 0.02233,0.00344 0.0332,0.00586 0,0 0.002,0 0.002,0 0,0 0.002,0 0.002,0 0.0015,1.509e-4 0.004,0 0.0059,0 l 2.515625,0.7871094 c 0.910031,0.2852238 1.521484,1.1155134 1.521484,2.0703125 v 1.2421875 c 0,0.07735 -0.03677,0.147437 -0.09961,0.193359 -0.04109,0.03142 -0.09182,0.04687 -0.142578,0.04687 -0.02417,0 -0.04809,-0.0025 -0.07227,-0.0098 l -3.554687,-1.111328 v 5.714843 c 0,1.198875 -0.975032,2.173828 -2.173829,2.173828 -1.198797,0 -2.175781,-0.975031 -2.175781,-2.173828 0,-1.198797 0.976984,-2.175781 2.175781,-2.175781 0.682833,0 1.292514,0.316255 1.691407,0.810547 V 7.3671875 c 0,-0.018129 0.0022,-0.037769 0.0059,-0.054687 0.0012,-0.00483 0.0047,-0.00884 0.0059,-0.013672 0.0036,-0.012086 0.0057,-0.02428 0.01172,-0.035156 0.0024,-0.00604 0.0073,-0.010791 0.0098,-0.015625 0.006,-0.00967 0.01228,-0.019629 0.01953,-0.029297 0.0036,-0.00483 0.0069,-0.00884 0.01172,-0.013672 0.0085,-0.00967 0.01572,-0.016932 0.02539,-0.025391 0,0 0.002,-0.00195 0.002,-0.00195 0,0 0.002,0 0.002,0 6.79e-4,-7.175e-4 0.0033,-0.0051 0.0039,-0.00586 0,0 0.002,-0.00195 0.002,-0.00195 0,0 0.002,0 0.002,0 0,0 0,-0.00195 0,-0.00195 0,0 0.002,0 0.002,0 0.0278,-0.020545 0.0587,-0.033765 0.09375,-0.041016 0.003,-6.033e-4 0.0069,-0.0018 0.0098,-0.00195 z m -3.796875,1.3945313 c 0.0081,-6.4e-4 0.01708,-2.484e-4 0.02539,0 l 1.873046,0.054687 c 0.132881,0.00397 0.240235,0.109247 0.240235,0.2421875 0,0.1329404 -0.107354,0.2461615 -0.240235,0.2421875 l -1.873046,-0.056641 c -0.132882,-0.00397 -0.242188,-0.109247 -0.242188,-0.2421875 0,-0.1246317 0.09535,-0.2306358 0.216797,-0.2402343 z M 6.2070312,11.716797 h 6.7675778 c 0.132941,0 0.240235,0.109247 0.240235,0.242187 0,0.132941 -0.107294,0.242188 -0.240235,0.242188 H 6.2070312 c -0.1329404,0 -0.2421875,-0.109247 -0.2421875,-0.242188 10e-8,-0.13294 0.1092471,-0.242187 0.2421875,-0.242187 z m -0.025391,3.142578 c 0.0081,-8.29e-4 0.017082,0 0.025391,0 h 3.1406251 c 0.1329404,0 0.2421875,0.109247 0.2421875,0.242188 -1e-7,0.13294 -0.1092471,0.240234 -0.2421875,0.240234 H 6.2070312 c -0.1329404,0 -0.2421875,-0.107294 -0.2421875,-0.240234 10e-8,-0.124632 0.095308,-0.229752 0.2167969,-0.242188 z" style="fill:#ffffff" id="path2"></path>
</svg>
