<?xml version="1.0" encoding="UTF-8" standalone="no"?>
<svg
   viewBox="0 0 16 16"
   height="16"
   width="16"
   xml:space="preserve"
   style="fill-rule:evenodd;clip-rule:evenodd;stroke-linejoin:round;stroke-miterlimit:2"
   version="1.1"
   id="svg1"
   sodipodi:docname="gen.svg"
   inkscape:version="1.4.3 (0d15f75042, 2025-12-25)"
   xmlns:inkscape="http://www.inkscape.org/namespaces/inkscape"
   xmlns:sodipodi="http://sodipodi.sourceforge.net/DTD/sodipodi-0.dtd"
   xmlns="http://www.w3.org/2000/svg"
   xmlns:svg="http://www.w3.org/2000/svg"><defs
     id="defs1" /><sodipodi:namedview
     id="namedview1"
     pagecolor="#505050"
     bordercolor="#eeeeee"
     borderopacity="1"
     inkscape:showpageshadow="0"
     inkscape:pageopacity="0"
     inkscape:pagecheckerboard="0"
     inkscape:deskcolor="#d1d1d1"
     inkscape:zoom="27.031612"
     inkscape:cx="2.8485168"
     inkscape:cy="10.987136"
     inkscape:window-width="2256"
     inkscape:window-height="1463"
     inkscape:window-x="0"
     inkscape:window-y="0"
     inkscape:window-maximized="1"
     inkscape:current-layer="svg1" /><path
     d="M 3.7695313,1.0117187 A 1.3482,1.3482 0 0 0 2.78125,1.4238281 c -0.2744,0.2744 -0.4121094,0.6032813 -0.4121094,0.9882813 V 13.611328 A 1.3489,1.3489 0 0 0 2.78125,14.601563 c 0.2737,0.2737 0.6032813,0.410156 0.9882813,0.410156 h 8.4003907 a 1.351,1.351 0 0 0 0.988281,-0.410156 1.351,1.351 0 0 0 0.41211,-0.990235 V 5.2128906 L 9.3691406,1.0117187 Z m 5.7714843,4.453125 c 0,0 0.00195,0 0.00195,0 0,0 0.00195,0 0.00195,0 0,0 0,0.00195 0,0.00195 0,0 0.00195,0 0.00195,0 0.00364,0 0.00808,-7.298e-4 0.011719,0 0.00728,7.269e-4 0.012978,0.00245 0.019531,0.00391 0,0 0.00195,0 0.00195,0 0,0 0.00195,0.00195 0.00195,0.00195 0,0 0.00195,0 0.00195,0 l 1.5156246,0.4726563 c 0.548273,0.1718408 0.917969,0.6728025 0.917969,1.2480469 h -0.002 v 0.7480468 c 0,0.0466 -0.02073,0.08952 -0.05859,0.1171876 -0.02476,0.018931 -0.05536,0.027344 -0.08594,0.027344 -0.01456,0 -0.02841,-0.00149 -0.04297,-0.00586 L 9.6875,7.4101562 v 3.4433598 c 0,0.722294 -0.5882993,1.310547 -1.3105469,1.310547 -0.7222476,0 -1.3105468,-0.5883 -1.3105469,-1.310547 0,-0.722248 0.5882993,-1.3105472 1.3105469,-1.3105472 0.4113908,0 0.7772546,0.1904816 1.0175782,0.4882812 V 5.6113281 c 0,-0.010922 0.00172,-0.02301 0.00391,-0.033203 7.27e-4,-0.00291 0.00318,-0.0049 0.00391,-0.00781 0.00218,-0.00728 0.00417,-0.014932 0.00781,-0.021484 0,0 0.00195,-0.00195 0.00195,-0.00195 0,0 0,-0.00195 0,-0.00195 9.101e-4,-0.00155 0.00318,-0.0044 0.00391,-0.00586 0.00364,-0.00582 0.0054,-0.011753 0.00977,-0.017578 0.00218,-0.00291 0.0049,-0.0049 0.00781,-0.00781 0.0051,-0.00583 0.0098,-0.010529 0.015625,-0.015625 0,0 0.00195,0 0.00195,0 0,0 0,-0.00195 0,-0.00195 0,0 0.00195,0 0.00195,0 0,0 0,-0.00195 0,-0.00195 0,0 0.00195,0 0.00195,0 0,0 0,-0.00195 0,-0.00195 0,0 0.00195,0 0.00195,0 0.016747,-0.012378 0.037478,-0.021022 0.058594,-0.025391 0,0 0.00195,0 0.00195,0 0,0 0.00195,0 0.00195,0 0.00173,-9.09e-5 0.0044,0 0.00586,0 0.00582,0 0.010528,-0.00195 0.015625,-0.00195 z m -5.2578125,0.875 c 0.00488,-4.995e-4 0.010619,0 0.015625,0 h 4.078125 c 0.080094,0 0.1445313,0.064438 0.1445313,0.1445313 0,0.080094 -0.064438,0.1464844 -0.1445313,0.1464844 h -4.078125 c -0.080093,0 -0.1464844,-0.066391 -0.1464844,-0.1464844 10e-8,-0.075088 0.057665,-0.1370386 0.1308594,-0.1445313 z m 0,1.8925782 c 0.00488,-4.995e-4 0.010619,0 0.015625,0 h 4.078125 c 0.080094,0 0.1445313,0.064438 0.1445313,0.1445312 0,0.080094 -0.064438,0.1464844 -0.1445313,0.1464844 h -4.078125 c -0.080093,0 -0.1464844,-0.066391 -0.1464844,-0.1464844 10e-8,-0.075088 0.057665,-0.1370385 0.1308594,-0.1445312 z M 4.2988281,10.125 h 1.8925781 c 0.080094,0 0.1464844,0.06639 0.1464844,0.146484 0,0.08009 -0.066391,0.144532 -0.1464844,0.144532 H 4.2988281 c -0.080093,0 -0.1464844,-0.06444 -0.1464844,-0.144532 10e-8,-0.08009 0.066391,-0.146484 0.1464844,-0.146484 z"
     style="fill:#969696;fill-rule:nonzero"
     id="path2" /><g
     id="g1"
     transform="matrix(0.09319925,0,0,0.09319925,3.4247267,4.1546881)" /></svg>
